<?xml version="1.0" standalone="no"?>
<!DOCTYPE svg PUBLIC "-//W3C//DTD SVG 20010904//EN"
 "http://www.w3.org/TR/2001/REC-SVG-20010904/DTD/svg10.dtd">
<svg version="1.0" xmlns="http://www.w3.org/2000/svg"
 width="1024.000000pt" height="1024.000000pt" viewBox="0 0 1024.000000 1024.000000"
 preserveAspectRatio="xMidYMid meet">
<metadata>
Created by potrace 1.14, written by Peter Selinger 2001-2017
</metadata>
<g transform="translate(0.000000,1024.000000) scale(0.100000,-0.100000)"
fill="#000000" stroke="none">
<path d="M6643 10233 c-27 -5 -40 -21 -47 -56 -2 -15 -7 -30 -10 -35 -3 -5 -7
-19 -10 -33 -10 -48 -14 -65 -30 -120 -9 -31 -18 -65 -20 -75 -2 -11 -14 -55
-25 -99 -12 -44 -24 -91 -27 -105 -3 -14 -8 -34 -11 -45 -4 -11 -8 -24 -9 -30
-1 -5 -18 -73 -39 -150 -20 -77 -38 -147 -40 -155 -2 -8 -20 -80 -40 -160 -20
-80 -38 -152 -40 -160 -2 -8 -9 -35 -16 -60 -7 -25 -14 -52 -15 -60 -1 -8 -19
-78 -39 -155 -20 -77 -38 -147 -40 -155 -2 -8 -9 -35 -16 -60 -7 -25 -13 -49
-15 -55 -1 -5 -16 -66 -34 -135 -17 -69 -34 -133 -36 -142 -5 -21 -3 -13 -53
-208 -21 -85 -60 -238 -86 -340 -25 -102 -49 -192 -52 -200 -3 -8 -7 -22 -8
-30 -5 -24 -14 -60 -20 -80 -3 -10 -7 -27 -9 -37 -2 -10 -32 -126 -66 -258
-71 -278 -69 -270 -74 -292 -2 -10 -12 -47 -21 -83 -9 -36 -18 -69 -19 -75 -1
-5 -5 -19 -9 -30 -3 -11 -8 -31 -11 -45 -2 -14 -14 -63 -26 -110 -12 -47 -24
-93 -26 -102 -2 -10 -7 -28 -10 -40 -3 -13 -7 -30 -8 -38 -1 -9 -5 -21 -10
-28 -4 -6 -5 -12 -2 -12 3 0 1 -12 -5 -27 -6 -16 -12 -39 -14 -53 -5 -31 -35
-149 -43 -170 -3 -8 -6 -22 -6 -30 -1 -8 -5 -21 -9 -27 -5 -7 -6 -13 -3 -13 2
0 0 -15 -5 -32 -6 -18 -13 -46 -16 -63 -3 -16 -9 -38 -14 -47 -5 -10 -7 -18
-4 -18 3 0 -1 -15 -9 -34 -8 -19 -13 -36 -10 -38 2 -3 -5 -34 -15 -71 -11 -37
-17 -67 -14 -67 3 0 0 -7 -7 -15 -7 -8 -10 -15 -7 -15 3 0 0 -20 -7 -45 -8
-25 -12 -45 -10 -45 3 0 0 -8 -5 -17 -5 -10 -11 -31 -14 -48 -3 -16 -13 -58
-22 -92 -9 -35 -18 -71 -20 -80 -2 -10 -18 -74 -35 -143 -18 -69 -34 -134 -36
-145 -2 -11 -15 -65 -30 -120 -33 -129 -34 -134 -41 -170 -3 -16 -9 -37 -14
-46 -4 -9 -6 -19 -3 -22 3 -3 2 -12 -2 -19 -9 -14 -9 -15 -19 -63 -3 -16 -17
-72 -31 -125 -14 -52 -28 -106 -30 -119 -11 -57 -32 -140 -37 -149 -4 -5 -9
-24 -12 -43 -3 -19 -13 -61 -21 -94 -9 -33 -18 -68 -20 -78 -7 -30 -12 -49
-38 -157 -15 -58 -29 -116 -32 -130 -2 -14 -8 -34 -11 -45 -4 -11 -8 -24 -9
-30 -9 -41 -20 -86 -69 -285 -31 -124 -58 -232 -60 -240 -1 -8 -8 -35 -15 -60
-7 -25 -13 -52 -15 -60 -12 -60 -30 -116 -38 -122 -16 -10 -143 11 -222 38
-112 37 -246 87 -293 109 -29 14 -55 25 -58 25 -9 0 -195 123 -228 151 -157
131 -255 302 -321 558 -9 35 -14 70 -11 77 3 7 2 15 -2 18 -22 13 -20 321 2
422 2 12 7 37 10 55 3 19 15 77 26 129 12 52 23 102 24 110 1 8 11 42 20 75
10 33 19 67 21 76 11 54 166 534 198 609 6 14 11 27 12 30 1 3 5 12 8 20 7 16
36 98 41 115 2 6 8 24 15 40 13 32 40 103 45 120 2 6 6 17 9 25 68 180 222
672 241 770 2 14 9 44 14 67 10 44 8 239 -3 283 -3 14 -8 36 -10 50 -5 32 -33
117 -51 153 -8 15 -12 27 -9 27 2 0 -11 25 -30 55 -19 30 -35 59 -35 65 0 5
-4 10 -8 10 -4 0 -15 13 -24 28 -25 42 -177 190 -210 204 -15 7 -28 16 -28 19
0 3 -21 17 -47 30 -27 13 -50 26 -53 29 -3 3 -9 6 -15 7 -5 2 -48 16 -95 33
-47 16 -86 29 -88 29 -1 -1 -33 5 -70 12 -71 14 -306 18 -382 7 -25 -4 -67
-12 -95 -18 -27 -7 -54 -13 -60 -14 -5 -1 -14 -4 -20 -7 -5 -4 -22 -9 -37 -13
-43 -10 -222 -98 -263 -129 -5 -4 -41 -31 -80 -59 -84 -62 -254 -233 -348
-349 -37 -46 -73 -91 -81 -99 -28 -32 -155 -220 -148 -220 4 0 2 -4 -4 -8 -7
-4 -26 -34 -44 -67 -18 -33 -35 -64 -39 -70 -15 -20 -115 -269 -125 -310 -2
-5 -9 -23 -15 -40 -7 -16 -14 -34 -15 -40 -8 -33 -28 -104 -36 -125 -11 -29
-18 -66 -26 -137 -7 -55 0 -73 46 -121 21 -22 26 -23 173 -19 88 2 161 9 174
15 24 13 32 33 108 264 68 210 101 291 182 453 45 90 82 156 92 165 4 3 12 17
20 32 8 15 22 37 33 47 10 11 18 23 18 26 0 3 11 17 25 31 14 14 25 28 25 33
0 9 215 231 224 231 4 0 28 15 54 33 137 95 377 135 478 78 65 -36 76 -65 75
-189 -1 -59 -3 -120 -6 -137 -7 -51 -12 -79 -19 -105 -3 -14 -8 -36 -10 -50
-2 -14 -18 -74 -35 -135 -17 -60 -33 -117 -35 -125 -3 -8 -21 -67 -41 -130
-20 -63 -42 -131 -47 -150 -6 -19 -13 -39 -16 -45 -4 -5 -7 -12 -7 -15 -4 -20
-90 -268 -125 -355 -6 -16 -12 -32 -12 -35 -1 -8 -60 -175 -98 -275 -21 -56
-111 -325 -114 -340 -2 -5 -16 -55 -33 -110 -75 -242 -134 -482 -150 -612 -15
-116 -8 -418 10 -499 3 -12 8 -39 11 -60 9 -53 44 -178 68 -239 29 -74 91
-199 100 -203 4 -2 8 -9 8 -14 0 -6 28 -50 62 -97 112 -154 280 -304 458 -407
72 -43 173 -95 190 -99 3 -1 31 -13 64 -28 32 -15 62 -27 67 -27 5 0 17 -4 27
-10 40 -22 383 -118 477 -134 17 -2 71 -12 120 -21 82 -15 154 -22 257 -28 39
-2 41 -6 25 -72 -14 -55 -28 -111 -31 -120 -1 -5 -9 -37 -16 -70 -17 -73 -17
-74 -20 -80 -3 -6 -3 -7 -20 -80 -7 -33 -15 -64 -16 -70 -9 -28 -35 -134 -39
-159 -3 -16 -11 -38 -17 -50 -6 -11 -10 -22 -9 -24 5 -6 -110 -473 -119 -482
-3 -3 -6 -14 -8 -25 -7 -47 -65 -271 -73 -281 -5 -6 -7 -13 -4 -15 3 -4 -2
-31 -19 -99 -28 -109 -97 -403 -98 -415 0 -2 -6 -27 -13 -55 -13 -50 -13 -51
19 -93 l32 -42 150 0 c138 1 152 2 191 24 31 18 44 32 48 55 4 17 25 103 47
191 22 88 42 167 43 175 2 8 16 62 31 120 14 58 27 110 29 115 1 6 4 17 7 25
6 15 107 419 113 449 2 9 4 16 5 16 1 0 3 7 5 15 1 8 33 137 69 285 109 440
129 519 129 533 0 6 4 12 9 12 5 0 7 3 4 8 -2 4 2 32 10 62 8 30 16 66 19 79
2 13 8 28 12 32 4 4 85 9 178 12 94 3 181 8 195 11 14 3 45 7 70 10 36 3 192
36 245 50 6 2 24 6 40 11 72 18 198 61 295 100 121 49 405 193 437 222 7 6 22
15 33 18 11 3 20 11 20 16 0 5 5 9 10 9 16 0 206 133 332 232 177 139 333 280
479 433 123 129 135 143 219 245 25 30 47 57 50 60 3 3 17 21 30 40 13 19 29
40 35 47 5 7 17 20 25 30 8 9 20 25 25 35 6 9 37 57 70 105 33 48 62 92 64 98
2 5 13 23 25 40 12 16 26 39 32 50 6 11 33 61 61 110 66 120 192 382 193 403
1 4 9 25 20 47 11 22 19 46 20 53 0 7 4 20 10 30 18 32 121 347 135 417 4 17
13 57 21 88 1 4 2 8 3 10 2 1 4 12 7 24 2 13 13 55 23 95 19 69 23 87 36 156
3 15 10 43 15 62 5 19 11 46 14 60 3 14 12 55 20 91 8 36 17 81 20 100 3 19 8
45 11 59 8 38 14 71 20 115 4 22 8 47 10 55 8 30 15 87 32 265 9 96 8 305 -1
390 -5 39 -9 80 -9 93 -1 12 -5 22 -10 22 -4 0 -6 4 -3 8 5 8 -7 68 -21 102
-3 8 -7 22 -9 30 -12 61 -86 181 -151 246 -77 76 -103 95 -183 133 -73 34 -78
35 -195 35 -93 0 -132 -4 -175 -19 -30 -10 -57 -20 -60 -20 -22 -6 -68 -33
-136 -80 -28 -20 -136 -125 -128 -125 3 0 -4 -10 -15 -22 -53 -56 -125 -207
-137 -283 -8 -54 -9 -152 -2 -195 7 -43 36 -119 55 -141 7 -8 13 -19 13 -22 0
-20 135 -162 205 -216 33 -25 70 -57 83 -71 63 -68 158 -240 177 -320 1 -3 6
-23 13 -45 10 -38 15 -62 28 -145 18 -122 1 -414 -32 -522 -3 -10 -7 -30 -10
-45 -8 -50 -56 -206 -90 -294 -45 -119 -117 -278 -132 -294 -4 -4 -7 -10 -7
-13 0 -6 -68 -128 -98 -177 -69 -111 -118 -188 -147 -229 -45 -64 -191 -258
-204 -272 -6 -6 -23 -26 -38 -45 -14 -19 -36 -45 -48 -59 -12 -14 -44 -52 -73
-85 -58 -69 -331 -343 -393 -395 -222 -187 -363 -282 -597 -400 -64 -32 -120
-60 -122 -60 -5 -1 -2 0 -100 -35 -38 -15 -80 -28 -92 -31 -12 -2 -35 -9 -50
-15 -16 -6 -29 -10 -30 -10 -2 1 -4 1 -5 0 -12 -3 -88 -18 -127 -25 -18 -3
-43 -8 -55 -10 -67 -13 -124 -17 -231 -18 -131 -1 -130 -2 -112 59 4 17 10 40
13 51 2 12 63 257 135 545 72 288 132 531 134 539 2 8 72 287 155 620 83 333
153 612 155 620 13 60 29 117 36 126 5 6 6 13 3 17 -3 3 -1 21 5 40 7 19 14
44 16 56 2 13 7 31 10 41 3 10 7 27 9 37 2 10 16 65 31 123 15 58 29 113 31
123 2 10 6 27 9 37 3 10 7 27 9 37 2 10 16 65 31 123 15 58 29 113 31 123 2
10 6 27 9 37 3 10 8 27 10 37 2 10 24 101 50 203 25 102 48 193 50 203 2 10 7
27 10 37 3 10 7 27 9 37 2 10 12 47 21 83 9 36 18 72 20 80 2 8 20 80 40 160
36 140 40 160 49 198 2 9 9 37 16 62 7 25 14 53 16 62 2 10 6 26 8 36 2 9 9
37 16 62 12 43 14 54 25 101 2 11 7 29 10 39 3 10 8 28 10 39 9 40 13 57 60
236 25 99 48 189 50 200 2 11 51 210 109 443 59 233 108 433 110 445 3 12 5
22 6 22 1 0 3 7 5 15 1 8 8 35 15 60 7 25 14 55 16 67 3 13 20 87 40 165 57
233 66 268 69 286 2 9 4 17 5 17 2 0 6 18 15 64 3 19 8 37 10 41 2 3 6 18 9
33 4 15 8 38 11 52 3 13 9 35 14 47 5 13 9 26 9 31 1 4 4 22 7 40 3 17 7 39 9
47 1 8 9 35 16 60 7 25 14 50 15 55 7 55 19 106 26 111 5 3 7 9 5 13 -3 4 -1
23 4 42 51 190 31 212 -190 214 -74 1 -145 0 -157 -2z"/>
</g>
</svg>
